<svg xmlns="http://www.w3.org/2000/svg" viewBox="0 0 64 64" role="img" aria-labelledby="title desc">
  <title id="title">AUSTSec 会徽</title>
  <desc id="desc">由网络节点、盾牌与锁组成的安徽理工大学网络空间安全协会矢量标志</desc>
  <defs>
    <linearGradient id="shield" x1="18" y1="16" x2="47" y2="51" gradientUnits="userSpaceOnUse">
      <stop stop-color="#1d67e8"/>
      <stop offset="1" stop-color="#063378"/>
    </linearGradient>
    <linearGradient id="trace" x1="13" y1="9" x2="51" y2="55" gradientUnits="userSpaceOnUse">
      <stop stop-color="#8cf1ff"/>
      <stop offset=".55" stop-color="#31a9ff"/>
      <stop offset="1" stop-color="#296dff"/>
    </linearGradient>
  </defs>

  <circle cx="32" cy="32" r="29.5" fill="#030506" stroke="#dffaff" stroke-width="1"/>
  <circle cx="32" cy="32" r="26.5" fill="none" stroke="#2479e9" stroke-width="1.25"/>

  <g fill="none" stroke="url(#trace)" stroke-linecap="round" stroke-linejoin="round">
    <circle cx="32" cy="28" r="18" stroke-width=".75" opacity=".7"/>
    <path d="M14 28h36M17.5 18.5c8.2 5.1 20.8 5.1 29 0M17.5 37.5c8.2-5.1 20.8-5.1 29 0" stroke-width=".65" opacity=".58"/>
    <path d="M32 10c-7 5.8-10.2 12-10.2 18S25 40.2 32 46M32 10c7 5.8 10.2 12 10.2 18S39 40.2 32 46" stroke-width=".65" opacity=".58"/>
    <path d="M13.8 28 20 18.2 32 10l12 8.2 6.2 9.8L44 37.8 32 46l-12-8.2Z" stroke-width=".6" opacity=".44"/>
  </g>

  <g fill="#82e9ff" stroke="#030506" stroke-width=".7">
    <circle cx="32" cy="10" r="1.6"/><circle cx="20" cy="18.2" r="1.45"/>
    <circle cx="44" cy="18.2" r="1.45"/><circle cx="13.8" cy="28" r="1.45"/>
    <circle cx="50.2" cy="28" r="1.45"/><circle cx="20" cy="37.8" r="1.45"/>
    <circle cx="44" cy="37.8" r="1.45"/>
  </g>

  <path d="M32 15.2c4.2 3.2 8.5 5.4 13.2 6.5v10.1c0 9-5.1 15.8-13.2 20.1-8.1-4.3-13.2-11.1-13.2-20.1V21.7c4.7-1.1 9-3.3 13.2-6.5Z" fill="url(#shield)" stroke="#f4fdff" stroke-width="2.2" stroke-linejoin="round"/>

  <g fill="none" stroke="#82e9ff" stroke-width="1" stroke-linecap="round" stroke-linejoin="round">
    <path d="M25 31v7l4 4v5M39 31v7l-4 4v5"/>
    <path d="M22.5 34.5v5l4 4M41.5 34.5v5l-4 4" opacity=".75"/>
  </g>
  <g fill="#82e9ff"><circle cx="25" cy="31" r="1"/><circle cx="39" cy="31" r="1"/><circle cx="22.5" cy="34.5" r="1"/><circle cx="41.5" cy="34.5" r="1"/></g>

  <path d="M27.5 29v-2.2a4.5 4.5 0 0 1 9 0V29" fill="none" stroke="#f8feff" stroke-width="2.4" stroke-linecap="round"/>
  <rect x="25.3" y="28.5" width="13.4" height="10.5" rx="2" fill="#f8feff"/>
  <circle cx="32" cy="33.2" r="1.55" fill="#0b3f8c"/>
  <path d="M32 34.4v2.1" stroke="#0b3f8c" stroke-width="1.3" stroke-linecap="round"/>

  <path d="M21 49.8 32 55l11-5.2-11 3.1Z" fill="#f4fdff" opacity=".96"/>
  <path d="M26.5 51.2V47l5.5-2.7 5.5 2.7v4.2" fill="#0b3f8c" stroke="#82e9ff" stroke-width=".65"/>
  <path d="M29 49.8v-3.4M32 51v-5.8M35 49.8v-3.4" stroke="#f4fdff" stroke-width=".75"/>
</svg>
